<?xml version="1.0" encoding="UTF-8"?>
<svg id="Layer_1" data-name="Layer 1" xmlns="http://www.w3.org/2000/svg" viewBox="0 0 643.5 587.89">
  <defs>
    <style>
      .cls-1 {
        font-family: PerpetuaTitlingMT-Light, 'Perpetua Titling MT';
        font-size: 143.72px;
        font-weight: 300;
      }

      .cls-2 {
        letter-spacing: -.02em;
      }

      .cls-3 {
        letter-spacing: -.06em;
      }

      .cls-4 {
        letter-spacing: -.04em;
      }

      .cls-5 {
        letter-spacing: -.06em;
      }
    </style>
  </defs>
  <g>
    <path d="m212.46,486.24c-.21,0-.39-.17-.39-.39s.17-.39.39-.39.39.17.39.39-.17.39-.39.39Z"/>
    <circle cx="200.26" cy="477.13" r=".78"/>
    <circle cx="188.7" cy="467.58" r="1.13"/>
    <path d="m177.83,458.7c-.8,0-1.45-.65-1.45-1.45s.65-1.45,1.45-1.45,1.45.65,1.45,1.45-.65,1.45-1.45,1.45Z"/>
    <path d="m167.71,447.95c-.98,0-1.77-.79-1.77-1.77s.79-1.77,1.77-1.77,1.77.79,1.77,1.77-.79,1.77-1.77,1.77Z"/>
    <circle cx="158.39" cy="434.43" r="2.06"/>
    <circle cx="149.93" cy="422.05" r="2.32"/>
    <circle cx="142.37" cy="409.1" r="2.59"/>
    <circle cx="135.75" cy="395.64" r="2.85"/>
    <circle cx="130.13" cy="381.74" r="3.09"/>
    <circle cx="125.52" cy="367.46" r="3.3"/>
    <circle cx="121.97" cy="352.9" r="3.51" transform="translate(-241.23 439.5) rotate(-84.34)"/>
    <circle cx="119.48" cy="338.11" r="3.72"/>
    <circle cx="118.06" cy="323.18" r="3.93" transform="translate(-219.85 387.95) rotate(-80.78)"/>
    <circle cx="117.72" cy="308.18" r="4.13"/>
    <circle cx="118.45" cy="293.2" r="4.28"/>
    <circle cx="120.25" cy="278.31" r="4.43"/>
    <circle cx="123.12" cy="263.59" r="4.58" transform="translate(-156.78 342.89) rotate(-80.78)"/>
    <circle cx="127.05" cy="249.11" r="4.73"/>
    <circle cx="132.03" cy="234.97" r="4.88"/>
    <circle cx="138.01" cy="221.22" r="5.03"/>
    <circle cx="144.96" cy="207.93" r="5.13"/>
    <circle cx="152.85" cy="195.18" r="5.22"/>
    <circle cx="161.63" cy="183.02" r="5.32"/>
    <circle cx="171.24" cy="171.5" r="5.41" transform="translate(-35.02 298.76) rotate(-76.72)"/>
    <circle cx="181.63" cy="160.69" r="5.5" transform="translate(-50.55 230.72) rotate(-58.28)"/>
    <circle cx="192.76" cy="150.63" r="5.59" transform="translate(-36.72 235.41) rotate(-58.28)"/>
    <circle cx="204.56" cy="141.38" r="5.68"/>
    <circle cx="216.97" cy="132.96" r="5.75" transform="translate(32.77 308.53) rotate(-75.13)"/>
    <circle cx="229.94" cy="125.43" r="5.78"/>
    <circle cx="243.4" cy="118.81" r="5.81"/>
    <circle cx="257.28" cy="113.15" r="5.84"/>
    <circle cx="271.53" cy="108.46" r="5.87" transform="translate(79.31 328.78) rotate(-70.67)"/>
    <circle cx="286.07" cy="104.77" r="5.9"/>
    <circle cx="300.82" cy="102.09" r="5.93"/>
    <circle cx="315.72" cy="100.42" r="5.96" transform="translate(116.45 365.11) rotate(-70.67)"/>
    <circle cx="330.71" cy="99.78" r="5.99"/>
    <circle cx="345.71" cy="100.14" r="5.98" transform="translate(120.89 381.21) rotate(-67.5)"/>
    <circle cx="360.65" cy="101.52" r="5.95" transform="translate(108.56 378.69) rotate(-63.43)"/>
    <circle cx="375.45" cy="103.92" r="5.92" transform="translate(62.49 335.9) rotate(-52.02)"/>
    <circle cx="390.06" cy="107.33" r="5.89" transform="translate(159.67 439.88) rotate(-70.67)"/>
    <circle cx="404.4" cy="111.74" r="5.86" transform="translate(146.4 442.59) rotate(-67.5)"/>
    <circle cx="418.39" cy="117.14" r="5.83" transform="translate(150.06 458.85) rotate(-67.5)"/>
    <circle cx="431.97" cy="123.49" r="5.8" transform="translate(68.79 387.98) rotate(-52.02)"/>
    <circle cx="445.09" cy="130.78" r="5.77" transform="translate(84.08 422.11) rotate(-55.28)"/>
    <circle cx="457.66" cy="138.95" r="5.72" transform="translate(205.9 545.61) rotate(-75.13)"/>
    <circle cx="469.63" cy="147.98" r="5.63"/>
    <circle cx="480.95" cy="157.82" r="5.54" transform="translate(216.85 589.64) rotate(-76.72)"/>
    <circle cx="491.55" cy="168.42" r="5.45" transform="translate(169.92 576.51) rotate(-70.67)"/>
    <circle cx="501.38" cy="179.74" r="5.35"/>
    <circle cx="510.4" cy="191.73" r="5.26" transform="translate(137.94 589.9) rotate(-67.5)"/>
    <circle cx="518.54" cy="204.33" r="5.17"/>
    <circle cx="525.76" cy="217.47" r="5.08"/>
    <circle cx="532.02" cy="231.1" r="4.94"/>
    <circle cx="537.27" cy="245.15" r="4.79"/>
    <circle cx="541.5" cy="259.54" r="4.64" transform="translate(136.18 702.59) rotate(-73.15)"/>
    <circle cx="544.67" cy="274.19" r="4.49" transform="translate(82.91 672.47) rotate(-67.5)"/>
    <path d="m546.76,293.38c-2.39,0-4.33-1.94-4.33-4.33s1.94-4.33,4.33-4.33,4.33,1.94,4.33,4.33-1.94,4.33-4.33,4.33Z"/>
    <circle cx="547.79" cy="304" r="4.18"/>
    <circle cx="547.74" cy="319" r="4.01"/>
    <circle cx="546.63" cy="333.96" r="3.8"/>
    <path d="m544.43,352.39c-1.98,0-3.59-1.61-3.59-3.59s1.61-3.59,3.59-3.59,3.59,1.61,3.59,3.59-1.61,3.59-3.59,3.59Z"/>
    <path d="m541.17,366.82c-1.86,0-3.38-1.51-3.38-3.38s1.51-3.38,3.38-3.38,3.38,1.51,3.38,3.38-1.51,3.38-3.38,3.38Z"/>
    <path d="m536.86,380.97c-1.75,0-3.17-1.42-3.17-3.17s1.42-3.17,3.17-3.17,3.17,1.42,3.17,3.17-1.42,3.17-3.17,3.17Z"/>
    <circle cx="531.51" cy="391.82" r="2.94"/>
    <path d="m525.17,408.09c-1.48,0-2.68-1.2-2.68-2.68s1.2-2.68,2.68-2.68,2.68,1.2,2.68,2.68-1.2,2.68-2.68,2.68Z"/>
    <path d="m517.87,420.92c-1.33,0-2.41-1.08-2.41-2.41s1.08-2.41,2.41-2.41,2.41,1.08,2.41,2.41-1.08,2.41-2.41,2.41Z"/>
    <circle cx="509.65" cy="431.06" r="2.14"/>
    <path d="m500.56,444.86c-1.03,0-1.87-.84-1.87-1.87s.84-1.87,1.87-1.87,1.87.84,1.87,1.87-.84,1.87-1.87,1.87Z"/>
    <path d="m490.66,455.79c-.85,0-1.54-.69-1.54-1.54s.69-1.54,1.54-1.54,1.54.69,1.54,1.54-.69,1.54-1.54,1.54Z"/>
    <circle cx="479.99" cy="464.79" r="1.22"/>
    <path d="m468.62,475.45c-.49,0-.89-.4-.89-.89s.4-.89.89-.89.89.4.89.89-.4.89-.89.89Z"/>
    <path d="m456.59,484.02c-.27,0-.5-.22-.5-.5s.22-.5.5-.5.5.22.5.5-.22.5-.5.5Z"/>
    <path d="m443.96,491.72c-.06,0-.11-.05-.11-.11s.05-.11.11-.11.11.05.11.11-.05.11-.11.11Z"/>
  </g>
  <g>
    <path d="m222.99,470.01c-.2,0-.36-.16-.36-.36s.16-.36.36-.36.36.16.36.36-.16.36-.36.36Z"/>
    <path d="m210.98,461.39c-.4,0-.72-.32-.72-.72s.32-.72.72-.72.72.32.72.72-.32.72-.72.72Z"/>
    <path d="m199.71,451.81c-.57,0-1.03-.46-1.03-1.03s.46-1.03,1.03-1.03,1.03.46,1.03,1.03-.46,1.03-1.03,1.03Z"/>
    <path d="m189.24,441.37c-.73,0-1.33-.59-1.33-1.33s.59-1.33,1.33-1.33,1.33.59,1.33,1.33-.59,1.33-1.33,1.33Z"/>
    <path d="m179.65,430.13c-.89,0-1.62-.73-1.62-1.62s.73-1.62,1.62-1.62,1.62.73,1.62,1.62-.73,1.62-1.62,1.62Z"/>
    <circle cx="170.98" cy="416.27" r="1.87" transform="translate(-267.3 518.37) rotate(-80.78)"/>
    <circle cx="163.31" cy="403.39" r="2.11"/>
    <circle cx="156.66" cy="389.94" r="2.36"/>
    <circle cx="151.1" cy="376.01" r="2.58"/>
    <circle cx="146.66" cy="361.69" r="2.78" transform="translate(-233.85 448.52) rotate(-80.78)"/>
    <circle cx="143.37" cy="347.06" r="2.97"/>
    <circle cx="141.24" cy="332.22" r="3.17"/>
    <circle cx="140.27" cy="317.25" r="3.36"/>
    <circle cx="140.47" cy="302.25" r="3.52"/>
    <circle cx="141.83" cy="287.31" r="3.65" transform="translate(-164.49 381.29) rotate(-80.78)"/>
    <circle cx="144.35" cy="272.53" r="3.79" transform="translate(-147.78 371.37) rotate(-80.78)"/>
    <circle cx="148.04" cy="257.99" r="3.93"/>
    <circle cx="152.86" cy="243.79" r="4.07"/>
    <circle cx="158.79" cy="230.02" r="4.21"/>
    <circle cx="165.79" cy="216.75" r="4.3"/>
    <circle cx="173.81" cy="204.08" r="4.38" transform="translate(-64.75 326.35) rotate(-76.72)"/>
    <circle cx="182.79" cy="192.08" r="4.47"/>
    <circle cx="192.69" cy="180.81" r="4.55"/>
    <circle cx="203.43" cy="170.35" r="4.64" transform="translate(-18.56 315.69) rotate(-73.15)"/>
    <circle cx="214.96" cy="160.76" r="4.72" transform="translate(-52.41 137.02) rotate(-31.72)"/>
    <circle cx="227.2" cy="152.1" r="4.79" transform="translate(-.26 303.8) rotate(-67.5)"/>
    <circle cx="240.09" cy="144.42" r="4.82" transform="translate(-8.99 272.73) rotate(-58.28)"/>
    <circle cx="253.54" cy="137.78" r="4.85" transform="translate(-34.57 153.87) rotate(-31.72)"/>
    <circle cx="267.47" cy="132.23" r="4.88"/>
    <circle cx="281.79" cy="127.79" r="4.9" transform="translate(7.65 271.26) rotate(-52.02)"/>
    <circle cx="296.42" cy="124.5" r="4.93" transform="translate(67.96 350.71) rotate(-67.5)"/>
    <circle cx="311.26" cy="122.37" r="4.96"/>
    <circle cx="326.23" cy="121.41" r="4.99" transform="translate(-21.63 134.09) rotate(-22.5)"/>
    <circle cx="341.23" cy="121.61" r="4.98" transform="translate(98.29 390.33) rotate(-67.5)"/>
    <circle cx="356.17" cy="122.98" r="4.96" transform="translate(145.89 435.65) rotate(-75.13)"/>
    <circle cx="370.95" cy="125.51" r="4.93" transform="translate(163.57 457.7) rotate(-76.72)"/>
    <circle cx="385.49" cy="129.2" r="4.9"/>
    <circle cx="399.69" cy="134.03" r="4.87"/>
    <circle cx="413.46" cy="139.96" r="4.84"/>
    <circle cx="426.72" cy="146.96" r="4.81" transform="translate(-13.53 246.29) rotate(-31.72)"/>
    <circle cx="439.39" cy="154.98" r="4.79" transform="translate(176.82 539.88) rotate(-75.13)"/>
    <circle cx="451.39" cy="163.97" r="4.71" transform="translate(147.25 535.64) rotate(-70.67)"/>
    <circle cx="462.66" cy="173.87" r="4.62"/>
    <circle cx="473.12" cy="184.62" r="4.54"/>
    <circle cx="482.71" cy="196.15" r="4.45" transform="translate(91.39 540.17) rotate(-63.44)"/>
    <path d="m491.36,212.76c-2.41,0-4.37-1.95-4.37-4.37s1.95-4.37,4.37-4.37,4.37,1.95,4.37,4.37-1.95,4.37-4.37,4.37Z"/>
    <circle cx="499.03" cy="221.28" r="4.28"/>
    <circle cx="505.67" cy="234.73" r="4.18"/>
    <circle cx="511.22" cy="248.66" r="4.04"/>
    <circle cx="515.65" cy="262.99" r="3.9"/>
    <circle cx="518.93" cy="277.62" r="3.76"/>
    <circle cx="521.06" cy="292.46" r="3.62"/>
    <circle cx="522.01" cy="307.43" r="3.48"/>
    <circle cx="521.81" cy="322.43" r="3.31"/>
    <circle cx="520.44" cy="337.37" r="3.11"/>
    <circle cx="517.9" cy="352.15" r="2.92"/>
    <path d="m514.21,369.41c-1.5,0-2.72-1.22-2.72-2.72s1.22-2.72,2.72-2.72,2.72,1.22,2.72,2.72-1.22,2.72-2.72,2.72Z"/>
    <circle cx="509.38" cy="380.89" r="2.53"/>
    <path d="m503.44,396.95c-1.26,0-2.29-1.02-2.29-2.29s1.02-2.29,2.29-2.29,2.29,1.02,2.29,2.29-1.02,2.29-2.29,2.29Z"/>
    <circle cx="496.43" cy="407.92" r="2.04"/>
    <path d="m488.41,422.38c-.99,0-1.79-.8-1.79-1.79s.8-1.79,1.79-1.79,1.79.8,1.79,1.79-.8,1.79-1.79,1.79Z"/>
    <path d="m479.41,434.13c-.85,0-1.53-.69-1.53-1.53s.69-1.53,1.53-1.53,1.53.69,1.53,1.53-.69,1.53-1.53,1.53Z"/>
    <circle cx="469.5" cy="443.86" r="1.23"/>
    <path d="m458.75,455.24c-.51,0-.93-.42-.93-.93s.42-.93.93-.93.93.42.93.93-.42.93-.93.93Z"/>
    <path d="m447.22,464.49c-.33,0-.6-.27-.6-.6s.27-.6.6-.6.6.27.6.6-.27.6-.6.6Z"/>
    <path d="m434.97,472.78c-.13,0-.24-.11-.24-.24s.11-.24.24-.24.24.11.24.24-.11.24-.24.24Z"/>
  </g>
  <g>
    <path d="m232.98,457.24c-.2,0-.36-.16-.36-.36s.16-.36.36-.36.36.16.36.36-.16.36-.36.36Z"/>
    <circle cx="221.08" cy="447.77" r=".71"/>
    <path d="m209.99,438.67c-.55,0-1-.45-1-1s.45-1,1-1,1,.45,1,1-.45,1-1,1Z"/>
    <path d="m199.81,427.96c-.72,0-1.3-.58-1.3-1.3s.58-1.3,1.3-1.3,1.3.58,1.3,1.3-.58,1.3-1.3,1.3Z"/>
    <circle cx="190.61" cy="414.82" r="1.56"/>
    <path d="m182.45,404.04c-1,0-1.81-.81-1.81-1.81s.81-1.81,1.81-1.81,1.81.81,1.81,1.81-.81,1.81-1.81,1.81Z"/>
    <circle cx="175.41" cy="388.99" r="2.05" transform="translate(-236.66 499.83) rotate(-80.78)"/>
    <circle cx="169.54" cy="375.2" r="2.28" transform="translate(-227.97 482.44) rotate(-80.78)"/>
    <circle cx="164.88" cy="360.94" r="2.48"/>
    <circle cx="161.48" cy="346.34" r="2.67"/>
    <circle cx="159.35" cy="331.5" r="2.86" transform="translate(-193.4 435.68) rotate(-80.78)"/>
    <circle cx="158.49" cy="316.52" r="3.05"/>
    <circle cx="158.91" cy="301.53" r="3.19"/>
    <circle cx="160.6" cy="286.62" r="3.33"/>
    <circle cx="163.57" cy="271.92" r="3.47"/>
    <circle cx="167.8" cy="257.54" r="3.61"/>
    <circle cx="173.26" cy="243.57" r="3.74" transform="translate(-103.6 356.23) rotate(-76.72)"/>
    <circle cx="179.91" cy="230.13" r="3.85" transform="translate(-92.48 335.63) rotate(-73.15)"/>
    <circle cx="187.69" cy="217.31" r="3.93"/>
    <circle cx="196.54" cy="205.21" r="4.01"/>
    <circle cx="206.39" cy="193.9" r="4.1" transform="translate(-51.73 310.38) rotate(-67.5)"/>
    <circle cx="217.17" cy="183.48" r="4.18"/>
    <circle cx="228.81" cy="174.02" r="4.26" transform="translate(14.66 365.79) rotate(-79.1)"/>
    <circle cx="241.21" cy="165.59" r="4.32"/>
    <circle cx="254.29" cy="158.25" r="4.35"/>
    <circle cx="267.96" cy="152.08" r="4.38"/>
    <circle cx="282.1" cy="147.1" r="4.4" transform="translate(59.56 374.47) rotate(-73.15)"/>
    <circle cx="296.62" cy="143.37" r="4.43"/>
    <circle cx="311.42" cy="140.91" r="4.46" transform="translate(62.05 374.7) rotate(-67.5)"/>
    <circle cx="326.37" cy="139.73" r="4.49" transform="translate(98.05 411.6) rotate(-73.15)"/>
    <circle cx="341.37" cy="139.82" r="4.49" transform="translate(81.55 401.69) rotate(-67.5)"/>
    <circle cx="356.3" cy="141.19" r="4.46" transform="translate(150.29 464.36) rotate(-79.1)"/>
    <circle cx="371.07" cy="143.83" r="4.43"/>
    <circle cx="385.55" cy="147.74" r="4.4" transform="translate(132.42 473.93) rotate(-73.15)"/>
    <circle cx="399.63" cy="152.88" r="4.38"/>
    <circle cx="413.22" cy="159.23" r="4.35"/>
    <circle cx="426.21" cy="166.72" r="4.32"/>
    <path d="m438.5,179.57c-2.35,0-4.26-1.91-4.26-4.26s1.91-4.26,4.26-4.26,4.26,1.91,4.26,4.26-1.91,4.26-4.26,4.26Z"/>
    <path d="m450.02,189.09c-2.31,0-4.18-1.87-4.18-4.18s1.87-4.18,4.18-4.18,4.18,1.87,4.18,4.18-1.87,4.18-4.18,4.18Z"/>
    <circle cx="460.68" cy="195.46" r="4.1"/>
    <circle cx="470.39" cy="206.88" r="4.01"/>
    <circle cx="479.09" cy="219.1" r="3.93"/>
    <circle cx="486.72" cy="232.01" r="3.85"/>
    <circle cx="493.2" cy="245.53" r="3.74"/>
    <circle cx="498.48" cy="259.57" r="3.6"/>
    <circle cx="502.54" cy="274.01" r="3.46"/>
    <circle cx="505.32" cy="288.74" r="3.32"/>
    <circle cx="506.83" cy="303.66" r="3.18"/>
    <path d="m507.07,321.69c-1.68,0-3.03-1.36-3.03-3.03s1.36-3.03,3.03-3.03,3.03,1.36,3.03,3.03-1.36,3.03-3.03,3.03Z"/>
    <circle cx="506.03" cy="333.61" r="2.84"/>
    <path d="m503.72,351.09c-1.46,0-2.65-1.19-2.65-2.65s1.19-2.65,2.65-2.65,2.65,1.19,2.65,2.65-1.19,2.65-2.65,2.65Z"/>
    <circle cx="500.13" cy="363" r="2.46"/>
    <circle cx="495.3" cy="377.2" r="2.27"/>
    <circle cx="489.26" cy="390.92" r="2.02"/>
    <circle cx="482.05" cy="404.07" r="1.78"/>
    <path d="m473.75,418.09c-.85,0-1.54-.69-1.54-1.54s.69-1.54,1.54-1.54,1.54.69,1.54,1.54-.69,1.54-1.54,1.54Z"/>
    <path d="m464.4,429.55c-.7,0-1.26-.57-1.26-1.26s.57-1.26,1.26-1.26,1.26.57,1.26,1.26-.57,1.26-1.26,1.26Z"/>
    <path d="m454.08,440.14c-.53,0-.97-.43-.97-.97s.43-.97.97-.97.97.43.97.97-.43.97-.97.97Z"/>
    <circle cx="442.88" cy="449.14" r=".66"/>
    <path d="m430.86,458.41c-.17,0-.3-.14-.3-.3s.14-.3.3-.3.3.14.3.3-.14.3-.3.3Z"/>
  </g>
  <g>
    <circle cx="241.32" cy="442.45" r=".39"/>
    <path d="m229.54,433.94c-.43,0-.77-.35-.77-.77s.35-.77.77-.77.77.35.77.77-.35.77-.77.77Z"/>
    <path d="m218.68,423.92c-.61,0-1.1-.49-1.1-1.1s.49-1.1,1.1-1.1,1.1.49,1.1,1.1-.49,1.1-1.1,1.1Z"/>
    <path d="m208.85,412.92c-.79,0-1.42-.64-1.42-1.42s.64-1.42,1.42-1.42,1.42.64,1.42,1.42-.64,1.42-1.42,1.42Z"/>
    <path d="m200.14,400.99c-.93,0-1.69-.76-1.69-1.69s.76-1.69,1.69-1.69,1.69.76,1.69,1.69-.76,1.69-1.69,1.69Z"/>
    <path d="m192.62,388.28c-1.08,0-1.96-.88-1.96-1.96s.88-1.96,1.96-1.96,1.96.88,1.96,1.96-.88,1.96-1.96,1.96Z"/>
    <circle cx="186.38" cy="372.69" r="2.23" transform="translate(-219.16 468.45) rotate(-76.72)"/>
    <circle cx="181.46" cy="358.52" r="2.44" transform="translate(-201.49 480.21) rotate(-80.78)"/>
    <circle cx="177.93" cy="343.95" r="2.66" transform="translate(-190.08 464.48) rotate(-80.78)"/>
    <circle cx="175.8" cy="329.11" r="2.87"/>
    <circle cx="175.08" cy="314.13" r="3.08"/>
    <circle cx="175.76" cy="299.15" r="3.23" transform="translate(-101.1 90.03) rotate(-22.5)"/>
    <circle cx="177.86" cy="284.3" r="3.38" transform="translate(-131.26 414.32) rotate(-80.78)"/>
    <circle cx="181.36" cy="269.72" r="3.53"/>
    <circle cx="186.24" cy="255.54" r="3.69"/>
    <circle cx="192.46" cy="241.89" r="3.82" transform="translate(-104.67 327.13) rotate(-67.5)"/>
    <circle cx="199.94" cy="228.9" r="3.91" transform="translate(-88.05 326.03) rotate(-67.5)"/>
    <circle cx="208.63" cy="216.68" r="4.01" transform="translate(-71.4 326.51) rotate(-67.5)"/>
    <circle cx="218.43" cy="205.33" r="4.1"/>
    <circle cx="229.26" cy="194.96" r="4.19"/>
    <circle cx="241.02" cy="185.66" r="4.28" transform="translate(13.14 387.22) rotate(-79.1)"/>
    <circle cx="253.61" cy="177.51" r="4.33" transform="translate(10.23 368.8) rotate(-73.15)"/>
    <circle cx="266.92" cy="170.6" r="4.36" transform="translate(-18.53 307.96) rotate(-58.28)"/>
    <circle cx="280.82" cy="164.98" r="4.39"/>
    <circle cx="295.2" cy="160.73" r="4.42" transform="translate(33.74 371.95) rotate(-67.5)"/>
    <circle cx="309.92" cy="157.87" r="4.45" transform="translate(45.47 383.78) rotate(-67.5)"/>
    <circle cx="324.85" cy="156.42" r="4.48"/>
    <circle cx="339.84" cy="156.37" r="4.49" transform="translate(65.32 410.51) rotate(-67.5)"/>
    <circle cx="354.78" cy="157.74" r="4.46" transform="translate(132.8 476.29) rotate(-79.1)"/>
    <circle cx="369.52" cy="160.51" r="4.43"/>
    <circle cx="383.92" cy="164.69" r="4.4"/>
    <circle cx="397.86" cy="170.22" r="4.37" transform="translate(88.35 472.66) rotate(-67.5)"/>
    <circle cx="411.21" cy="177.06" r="4.33" transform="translate(44.41 433.77) rotate(-58.28)"/>
    <circle cx="423.84" cy="185.13" r="4.3"/>
    <path d="m435.66,198.57c-2.32,0-4.21-1.88-4.21-4.21s1.88-4.21,4.21-4.21,4.21,1.88,4.21,4.21-1.88,4.21-4.21,4.21Z"/>
    <path d="m446.55,208.79c-2.27,0-4.11-1.84-4.11-4.11s1.84-4.11,4.11-4.11,4.11,1.84,4.11,4.11-1.84,4.11-4.11,4.11Z"/>
    <circle cx="456.41" cy="215.97" r="4.02"/>
    <circle cx="465.17" cy="228.14" r="3.93"/>
    <circle cx="472.73" cy="241.09" r="3.84"/>
    <path d="m479.02,258.41c-2.05,0-3.71-1.66-3.71-3.71s1.66-3.71,3.71-3.71,3.71,1.66,3.71,3.71-1.66,3.71-3.71,3.71Z"/>
    <path d="m483.99,272.41c-1.96,0-3.56-1.59-3.56-3.56s1.59-3.56,3.56-3.56,3.56,1.59,3.56,3.56-1.59,3.56-3.56,3.56Z"/>
    <path d="m487.57,286.81c-1.88,0-3.4-1.52-3.4-3.4s1.52-3.4,3.4-3.4,3.4,1.52,3.4,3.4-1.52,3.4-3.4,3.4Z"/>
    <path d="m489.76,301.49c-1.8,0-3.25-1.46-3.25-3.25s1.46-3.25,3.25-3.25,3.25,1.46,3.25,3.25-1.46,3.25-3.25,3.25Z"/>
    <path d="m490.53,316.32c-1.71,0-3.1-1.39-3.1-3.1s1.39-3.1,3.1-3.1,3.1,1.39,3.1,3.1-1.39,3.1-3.1,3.1Z"/>
    <circle cx="489.89" cy="328.2" r="2.89"/>
    <path d="m487.85,345.74c-1.48,0-2.68-1.2-2.68-2.68s1.2-2.68,2.68-2.68,2.68,1.2,2.68,2.68-1.2,2.68-2.68,2.68Z"/>
    <path d="m484.39,360.12c-1.36,0-2.47-1.1-2.47-2.47s1.1-2.47,2.47-2.47,2.47,1.1,2.47,2.47-1.1,2.47-2.47,2.47Z"/>
    <circle cx="479.56" cy="371.85" r="2.26"/>
    <circle cx="473.39" cy="385.52" r="1.99"/>
    <path d="m465.95,400.25c-.95,0-1.72-.77-1.72-1.72s.77-1.72,1.72-1.72,1.72.77,1.72,1.72-.77,1.72-1.72,1.72Z"/>
    <circle cx="457.3" cy="410.79" r="1.44"/>
    <circle cx="447.54" cy="422.17" r="1.12"/>
    <circle cx="436.74" cy="432.58" r=".79"/>
    <circle cx="425.01" cy="441.92" r=".42"/>
    <path d="m412.54,450.08s-.02-.01-.02-.02.01-.02.02-.02.02.01.02.02-.01.02-.02.02Z"/>
  </g>
  <g>
    <circle cx="249.67" cy="428" r=".39"/>
    <path d="m238.04,419.28c-.42,0-.75-.34-.75-.75s.34-.75.75-.75.75.34.75.75-.34.75-.75.75Z"/>
    <path d="m227.48,408.96c-.59,0-1.08-.48-1.08-1.08s.48-1.08,1.08-1.08,1.08.48,1.08,1.08-.48,1.08-1.08,1.08Z"/>
    <circle cx="218.1" cy="396.18" r="1.38"/>
    <path d="m210.01,385.2c-.91,0-1.64-.74-1.64-1.64s.74-1.64,1.64-1.64,1.64.74,1.64,1.64-.74,1.64-1.64,1.64Z"/>
    <path d="m203.31,372.05c-1.06,0-1.91-.86-1.91-1.91s.86-1.91,1.91-1.91,1.91.86,1.91,1.91-.86,1.91-1.91,1.91Z"/>
    <path d="m198.08,358.23c-1.18,0-2.14-.96-2.14-2.14s.96-2.14,2.14-2.14,2.14.96,2.14,2.14-.96,2.14-2.14,2.14Z"/>
    <circle cx="194.38" cy="341.56" r="2.35"/>
    <circle cx="192.25" cy="326.72" r="2.56" transform="translate(-161.05 464.16) rotate(-80.78)"/>
    <circle cx="191.7" cy="311.74" r="2.76"/>
    <circle cx="192.71" cy="296.78" r="2.91" transform="translate(-153.41 223.19) rotate(-45)"/>
    <circle cx="195.31" cy="282.01" r="3.06"/>
    <circle cx="199.46" cy="267.6" r="3.21"/>
    <circle cx="205.14" cy="253.72" r="3.36" transform="translate(-107.77 346.15) rotate(-67.5)"/>
    <circle cx="212.26" cy="240.53" r="3.46" transform="translate(-91.19 344.58) rotate(-67.5)"/>
    <circle cx="220.73" cy="228.16" r="3.55"/>
    <circle cx="230.47" cy="216.76" r="3.64" transform="translate(-79.54 153.54) rotate(-31.72)"/>
    <circle cx="241.36" cy="206.45" r="3.73" transform="translate(-41.74 350.43) rotate(-67.5)"/>
    <circle cx="253.28" cy="197.35" r="3.82"/>
    <circle cx="266.09" cy="189.56" r="3.86" transform="translate(-10.87 362.85) rotate(-67.5)"/>
    <circle cx="279.65" cy="183.17" r="3.89" transform="translate(23.3 397.75) rotate(-73.15)"/>
    <circle cx="293.83" cy="178.27" r="3.92"/>
    <circle cx="308.44" cy="174.92" r="3.95"/>
    <circle cx="323.32" cy="173.13" r="3.98"/>
    <circle cx="338.32" cy="172.93" r="3.99" transform="translate(104.53 472.44) rotate(-79.1)"/>
    <circle cx="353.25" cy="174.29" r="3.96"/>
    <circle cx="367.96" cy="177.23" r="3.93" transform="translate(63.4 449.36) rotate(-67.5)"/>
    <circle cx="382.26" cy="181.73" r="3.9" transform="translate(131.52 522.73) rotate(-79.1)"/>
    <circle cx="396" cy="187.73" r="3.87" transform="translate(136.77 541.09) rotate(-79.1)"/>
    <circle cx="409.03" cy="195.16" r="3.84" transform="translate(27.98 440.5) rotate(-58.28)"/>
    <circle cx="421.19" cy="203.92" r="3.77" transform="translate(71.61 515.01) rotate(-67.5)"/>
    <circle cx="432.36" cy="213.92" r="3.68"/>
    <path d="m442.41,228.63c-1.98,0-3.58-1.6-3.58-3.58s1.6-3.58,3.58-3.58,3.58,1.6,3.58,3.58-1.6,3.58-3.58,3.58Z"/>
    <path d="m451.24,240.66c-1.93,0-3.49-1.56-3.49-3.49s1.56-3.49,3.49-3.49,3.49,1.56,3.49,3.49-1.56,3.49-3.49,3.49Z"/>
    <circle cx="458.72" cy="250.16" r="3.4"/>
    <circle cx="464.79" cy="263.88" r="3.27"/>
    <path d="m469.35,281.27c-1.72,0-3.11-1.39-3.11-3.11s1.39-3.11,3.11-3.11,3.11,1.39,3.11,3.11-1.39,3.11-3.11,3.11Z"/>
    <circle cx="472.36" cy="292.85" r="2.96"/>
    <path d="m473.79,310.58c-1.55,0-2.81-1.26-2.81-2.81s1.26-2.81,2.81-2.81,2.81,1.26,2.81,2.81-1.26,2.81-2.81,2.81Z"/>
    <circle cx="473.65" cy="322.77" r="2.63"/>
    <circle cx="471.94" cy="337.67" r="2.42"/>
    <path d="m468.65,354.51c-1.22,0-2.2-.99-2.2-2.2s.99-2.2,2.2-2.2,2.2.99,2.2,2.2-.99,2.2-2.2,2.2Z"/>
    <circle cx="463.82" cy="366.5" r="1.99"/>
    <path d="m457.49,381.82c-.95,0-1.72-.77-1.72-1.72s.77-1.72,1.72-1.72,1.72.77,1.72,1.72-.77,1.72-1.72,1.72Z"/>
    <circle cx="449.76" cy="392.94" r="1.45"/>
    <path d="m440.71,406.07c-.65,0-1.17-.52-1.17-1.17s.52-1.17,1.17-1.17,1.17.52,1.17,1.17-.52,1.17-1.17,1.17Z"/>
    <circle cx="430.45" cy="415.83" r=".84"/>
    <path d="m419.09,426.12c-.27,0-.5-.22-.5-.5s.22-.5.5-.5.5.22.5.5-.22.5-.5.5Z"/>
    <path d="m406.76,434.26c-.06,0-.1-.05-.1-.1s.05-.1.1-.1.1.05.1.1-.05.1-.1.1Z"/>
  </g>
  <g>
    <path d="m258.13,413.99c-.21,0-.39-.17-.39-.39s.17-.39.39-.39.39.17.39.39-.17.39-.39.39Z"/>
    <circle cx="246.7" cy="403.9" r=".73"/>
    <path d="m236.51,393.96c-.58,0-1.06-.47-1.06-1.06s.47-1.06,1.06-1.06,1.06.47,1.06,1.06-.47,1.06-1.06,1.06Z"/>
    <path d="m227.71,382.09c-.73,0-1.33-.6-1.33-1.33s.6-1.33,1.33-1.33,1.33.6,1.33,1.33-.6,1.33-1.33,1.33Z"/>
    <path d="m220.43,369.25c-.88,0-1.59-.71-1.59-1.59s.71-1.59,1.59-1.59,1.59.71,1.59,1.59-.71,1.59-1.59,1.59Z"/>
    <path d="m214.79,355.6c-1.01,0-1.84-.82-1.84-1.84s.82-1.84,1.84-1.84,1.84.82,1.84,1.84-.82,1.84-1.84,1.84Z"/>
    <circle cx="210.87" cy="339.3" r="2.04"/>
    <circle cx="208.72" cy="324.46" r="2.25" transform="translate(-108.28 104.57) rotate(-22.5)"/>
    <circle cx="208.36" cy="309.48" r="2.44"/>
    <circle cx="209.78" cy="294.55" r="2.59"/>
    <circle cx="212.99" cy="279.9" r="2.74"/>
    <circle cx="217.95" cy="265.75" r="2.89" transform="translate(-90.77 416.82) rotate(-76.72)"/>
    <circle cx="224.58" cy="252.31" r="3.01" transform="translate(-99.1 155.75) rotate(-31.72)"/>
    <circle cx="232.78" cy="239.76" r="3.1"/>
    <circle cx="242.43" cy="228.28" r="3.19"/>
    <circle cx="253.38" cy="218.04" r="3.28" transform="translate(-45.03 368.69) rotate(-67.5)"/>
    <circle cx="265.47" cy="209.18" r="3.36" transform="translate(-52.03 325.03) rotate(-58.28)"/>
    <circle cx="278.54" cy="201.83" r="3.39" transform="translate(-39.59 332.67) rotate(-58.28)"/>
    <circle cx="292.41" cy="196.12" r="3.42" transform="translate(-28.15 341.75) rotate(-58.28)"/>
    <circle cx="306.85" cy="192.13" r="3.45"/>
    <circle cx="321.68" cy="189.91" r="3.48"/>
    <circle cx="336.67" cy="189.48" r="3.49"/>
    <circle cx="351.6" cy="190.83" r="3.46" transform="translate(40.74 442.64) rotate(-67.5)"/>
    <circle cx="366.26" cy="193.97" r="3.43"/>
    <circle cx="380.44" cy="198.86" r="3.4" transform="translate(-47.73 229.71) rotate(-31.72)"/>
    <circle cx="393.91" cy="205.43" r="3.37"/>
    <circle cx="406.5" cy="213.57" r="3.33" transform="translate(11.12 447.08) rotate(-58.28)"/>
    <circle cx="418.03" cy="223.16" r="3.24"/>
    <circle cx="428.32" cy="234.06" r="3.15"/>
    <path d="m437.24,249.17c-1.69,0-3.06-1.37-3.06-3.06s1.37-3.06,3.06-3.06,3.06,1.37,3.06,3.06-1.37,3.06-3.06,3.06Z"/>
    <path d="m444.65,262.11c-1.64,0-2.97-1.33-2.97-2.97s1.33-2.97,2.97-2.97,2.97,1.33,2.97,2.97-1.33,2.97-2.97,2.97Z"/>
    <path d="m450.43,275.8c-1.56,0-2.82-1.26-2.82-2.82s1.26-2.82,2.82-2.82,2.82,1.26,2.82,2.82-1.26,2.82-2.82,2.82Z"/>
    <circle cx="454.49" cy="287.41" r="2.67"/>
    <path d="m456.78,304.74c-1.39,0-2.52-1.13-2.52-2.52s1.13-2.52,2.52-2.52,2.52,1.13,2.52,2.52-1.13,2.52-2.52,2.52Z"/>
    <path d="m457.28,319.57c-1.31,0-2.36-1.06-2.36-2.36s1.06-2.36,2.36-2.36,2.36,1.06,2.36,2.36-1.06,2.36-2.36,2.36Z"/>
    <circle cx="456" cy="332.14" r="2.15"/>
    <path d="m452.94,348.77c-1.07,0-1.94-.87-1.94-1.94s.87-1.94,1.94-1.94,1.94.87,1.94,1.94-.87,1.94-1.94,1.94Z"/>
    <circle cx="448.12" cy="361.02" r="1.73"/>
    <path d="m441.61,376c-.81,0-1.46-.66-1.46-1.46s.66-1.46,1.46-1.46,1.46.66,1.46,1.46-.66,1.46-1.46,1.46Z"/>
    <path d="m433.53,388.36c-.66,0-1.2-.54-1.2-1.2s.54-1.2,1.2-1.2,1.2.54,1.2,1.2-.54,1.2-1.2,1.2Z"/>
    <circle cx="424" cy="398.73" r=".89"/>
    <circle cx="413.15" cy="409.08" r=".57"/>
    <path d="m401.14,418.24c-.1,0-.19-.08-.19-.19s.08-.19.19-.19.19.08.19.19-.08.19-.19.19Z"/>
  </g>
  <g>
    <circle cx="266.41" cy="399.03" r=".38"/>
    <circle cx="255.27" cy="389.01" r=".69"/>
    <circle cx="245.61" cy="377.54" r=".97"/>
    <path d="m237.62,366.12c-.7,0-1.26-.56-1.26-1.26s.56-1.26,1.26-1.26,1.26.56,1.26,1.26-.56,1.26-1.26,1.26Z"/>
    <path d="m231.48,352.72c-.85,0-1.53-.69-1.53-1.53s.69-1.53,1.53-1.53,1.53.69,1.53,1.53-.69,1.53-1.53,1.53Z"/>
    <path d="m227.31,338.53c-.96,0-1.74-.78-1.74-1.74s.78-1.74,1.74-1.74,1.74.78,1.74,1.74-.78,1.74-1.74,1.74Z"/>
    <path d="m225.18,323.9c-1.07,0-1.94-.87-1.94-1.94s.87-1.94,1.94-1.94,1.94.87,1.94,1.94-.87,1.94-1.94,1.94Z"/>
    <path d="m225.11,309.08c-1.17,0-2.12-.95-2.12-2.12s.95-2.12,2.12-2.12,2.12.95,2.12,2.12-.95,2.12-2.12,2.12Z"/>
    <circle cx="227.1" cy="292.1" r="2.27" transform="translate(-109.37 446.01) rotate(-76.72)"/>
    <circle cx="231.13" cy="277.66" r="2.42" transform="translate(-79.97 461.34) rotate(-80.78)"/>
    <circle cx="237.15" cy="263.93" r="2.55" transform="translate(-117.17 244.99) rotate(-45)"/>
    <circle cx="245.01" cy="251.17" r="2.64"/>
    <circle cx="254.56" cy="239.62" r="2.73"/>
    <circle cx="265.61" cy="229.49" r="2.82" transform="translate(-67.6 119.11) rotate(-22.5)"/>
    <circle cx="277.96" cy="220.98" r="2.88"/>
    <circle cx="291.36" cy="214.27" r="2.91" transform="translate(-44.09 349.47) rotate(-58.28)"/>
    <circle cx="305.57" cy="209.49" r="2.94" transform="translate(42.07 469.93) rotate(-79.1)"/>
    <circle cx="320.3" cy="206.74" r="2.97"/>
    <circle cx="335.28" cy="206.05" r="3"/>
    <circle cx="350.21" cy="207.42" r="2.97"/>
    <circle cx="364.8" cy="210.85" r="2.94"/>
    <circle cx="378.77" cy="216.28" r="2.91"/>
    <circle cx="391.85" cy="223.6" r="2.88"/>
    <circle cx="403.8" cy="232.66" r="2.8" transform="translate(-58.3 172.24) rotate(-22.5)"/>
    <circle cx="414.37" cy="243.29" r="2.71"/>
    <circle cx="423.39" cy="255.26" r="2.62" transform="translate(56.39 586.51) rotate(-73.15)"/>
    <circle cx="430.66" cy="268.37" r="2.53"/>
    <circle cx="436.03" cy="282.37" r="2.38"/>
    <circle cx="439.39" cy="296.97" r="2.23"/>
    <path d="m440.7,313.99c-1.15,0-2.08-.93-2.08-2.08s.93-2.08,2.08-2.08,2.08.93,2.08,2.08-.93,2.08-2.08,2.08Z"/>
    <circle cx="439.95" cy="326.88" r="1.88"/>
    <path d="m437.14,343.29c-.93,0-1.68-.75-1.68-1.68s.75-1.68,1.68-1.68,1.68.75,1.68,1.68-.75,1.68-1.68,1.68Z"/>
    <path d="m432.3,357.26c-.81,0-1.46-.65-1.46-1.46s.65-1.46,1.46-1.46,1.46.65,1.46,1.46-.65,1.46-1.46,1.46Z"/>
    <path d="m425.53,370.35c-.65,0-1.17-.53-1.17-1.17s.53-1.17,1.17-1.17,1.17.53,1.17,1.17-.53,1.17-1.17,1.17Z"/>
    <path d="m416.98,382.37c-.49,0-.89-.4-.89-.89s.4-.89.89-.89.89.4.89.89-.4.89-.89.89Z"/>
    <path d="m406.8,393.09c-.33,0-.6-.27-.6-.6s.27-.6.6-.6.6.27.6.6-.27.6-.6.6Z"/>
    <circle cx="395.21" cy="402" r=".26"/>
  </g>
  <g>
    <path d="m274.83,384.87c-.21,0-.38-.17-.38-.38s.17-.38.38-.38.38.17.38.38-.17.38-.38.38Z"/>
    <path d="m264.07,374.72c-.37,0-.66-.3-.66-.66s.3-.66.66-.66.66.3.66.66-.3.66-.66.66Z"/>
    <path d="m255.15,362.96c-.52,0-.94-.42-.94-.94s.42-.94.94-.94.94.42.94.94-.42.94-.94.94Z"/>
    <circle cx="248.32" cy="348.68" r="1.22"/>
    <path d="m243.79,335.83c-.79,0-1.43-.64-1.43-1.43s.64-1.43,1.43-1.43,1.43.64,1.43,1.43-.64,1.43-1.43,1.43Z"/>
    <path d="m241.66,321.2c-.9,0-1.64-.73-1.64-1.64s.73-1.64,1.64-1.64,1.64.73,1.64,1.64-.73,1.64-1.64,1.64Z"/>
    <circle cx="241.96" cy="304.57" r="1.8"/>
    <path d="m244.7,291.78c-1.08,0-1.95-.87-1.95-1.95s.87-1.95,1.95-1.95,1.95.87,1.95,1.95-.87,1.95-1.95,1.95Z"/>
    <circle cx="249.83" cy="275.75" r="2.09"/>
    <circle cx="257.21" cy="262.71" r="2.19"/>
    <circle cx="266.61" cy="251.04" r="2.28" transform="translate(-67.35 401.29) rotate(-67.5)"/>
    <circle cx="277.79" cy="241.05" r="2.36"/>
    <circle cx="290.44" cy="233.03" r="2.41" transform="translate(6.7 474.16) rotate(-79.1)"/>
    <circle cx="304.25" cy="227.18" r="2.44"/>
    <circle cx="318.82" cy="223.69" r="2.47"/>
    <circle cx="333.77" cy="222.63" r="2.5"/>
    <circle cx="348.69" cy="224.01" r="2.47"/>
    <circle cx="363.19" cy="227.81" r="2.44"/>
    <circle cx="376.86" cy="233.94" r="2.41" transform="translate(-20.27 431.53) rotate(-58.28)"/>
    <circle cx="389.34" cy="242.24" r="2.36"/>
    <circle cx="400.31" cy="252.45" r="2.27" transform="translate(13.88 525.68) rotate(-67.5)"/>
    <path d="m409.47,266.5c-1.21,0-2.18-.98-2.18-2.18s.98-2.18,2.18-2.18,2.18.98,2.18,2.18-.98,2.18-2.18,2.18Z"/>
    <path d="m416.56,279.6c-1.15,0-2.08-.93-2.08-2.08s.93-2.08,2.08-2.08,2.08.93,2.08,2.08-.93,2.08-2.08,2.08Z"/>
    <circle cx="421.39" cy="291.7" r="1.94"/>
    <circle cx="423.82" cy="306.49" r="1.79"/>
    <circle cx="423.81" cy="321.48" r="1.62"/>
    <path d="m421.37,337.68c-.78,0-1.41-.63-1.41-1.41s.63-1.41,1.41-1.41,1.41.63,1.41,1.41-.63,1.41-1.41,1.41Z"/>
    <circle cx="416.53" cy="350.45" r="1.19"/>
    <path d="m409.42,364.56c-.5,0-.91-.41-.91-.91s.41-.91.91-.91.91.41.91.91-.41.91-.91.91Z"/>
    <path d="m400.25,376.13c-.35,0-.63-.28-.63-.63s.28-.63.63-.63.63.28.63.63-.28.63-.63.63Z"/>
    <path d="m389.28,386.04c-.18,0-.33-.15-.33-.33s.15-.33.33-.33.33.15.33.33-.15.33-.33.33Z"/>
  </g>
  <g>
    <path d="m283.3,370.26c-.2,0-.35-.16-.35-.35s.16-.35.35-.35.35.16.35.35-.16.35-.35.35Z"/>
    <path d="m273.13,359.53c-.35,0-.63-.28-.63-.63s.28-.63.63-.63.63.28.63.63-.28.63-.63.63Z"/>
    <path d="m265.35,347.01c-.5,0-.9-.4-.9-.9s.4-.9.9-.9.9.4.9.9-.4.9-.9.9Z"/>
    <path d="m260.29,333.14c-.62,0-1.13-.51-1.13-1.13s.51-1.13,1.13-1.13,1.13.51,1.13,1.13-.51,1.13-1.13,1.13Z"/>
    <circle cx="258.16" cy="317.19" r="1.33"/>
    <circle cx="259" cy="302.23" r="1.48"/>
    <circle cx="262.81" cy="287.75" r="1.62"/>
    <circle cx="269.45" cy="274.32" r="1.73"/>
    <circle cx="278.63" cy="262.49" r="1.82"/>
    <circle cx="289.98" cy="252.72" r="1.91"/>
    <circle cx="303.04" cy="245.39" r="1.94"/>
    <circle cx="317.3" cy="240.84" r="1.97"/>
    <path d="m332.19,241.23c-1.1,0-2-.89-2-2s.89-2,2-2,2,.89,2,2-.89,2-2,2Z"/>
    <circle cx="347.11" cy="240.6" r="1.97"/>
    <circle cx="361.45" cy="244.92" r="1.94"/>
    <path d="m374.63,253.94c-1.06,0-1.92-.86-1.92-1.92s.86-1.92,1.92-1.92,1.92.86,1.92,1.92-.86,1.92-1.92,1.92Z"/>
    <path d="m386.13,263.45c-1.01,0-1.83-.82-1.83-1.83s.82-1.83,1.83-1.83,1.83.82,1.83,1.83-.82,1.83-1.83,1.83Z"/>
    <path d="m395.5,275.05c-.96,0-1.75-.78-1.75-1.75s.78-1.75,1.75-1.75,1.75.78,1.75,1.75-.78,1.75-1.75,1.75Z"/>
    <path d="m402.36,288.26c-.91,0-1.64-.73-1.64-1.64s.73-1.64,1.64-1.64,1.64.73,1.64,1.64-.73,1.64-1.64,1.64Z"/>
    <path d="m406.4,302.53c-.83,0-1.5-.67-1.5-1.5s.67-1.5,1.5-1.5,1.5.67,1.5,1.5-.67,1.5-1.5,1.5Z"/>
    <path d="m407.49,317.32c-.74,0-1.35-.6-1.35-1.35s.6-1.35,1.35-1.35,1.35.6,1.35,1.35-.6,1.35-1.35,1.35Z"/>
    <circle cx="405.6" cy="330.83" r="1.15"/>
    <circle cx="400.77" cy="345.01" r=".93"/>
    <circle cx="393.2" cy="357.93" r=".65"/>
    <path d="m383.21,369.47c-.21,0-.38-.17-.38-.38s.17-.38.38-.38.38.17.38.38-.17.38-.38.38Z"/>
    <circle cx="371.21" cy="378.04" r=".03"/>
  </g>
  <g>
    <path d="m291.86,355.51c-.18,0-.32-.15-.32-.32s.15-.32.32-.32.32.15.32.32-.15.32-.32.32Z"/>
    <path d="m282.68,343.96c-.33,0-.59-.26-.59-.59s.26-.59.59-.59.59.26.59.59-.26.59-.59.59Z"/>
    <path d="m276.83,330.42c-.45,0-.81-.36-.81-.81s.36-.81.81-.81.81.36.81.81-.36.81-.81.81Z"/>
    <path d="m274.7,315.77c-.54,0-.98-.44-.98-.98s.44-.98.98-.98.98.44.98.98-.44.98-.98.98Z"/>
    <path d="m276.39,301.07c-.63,0-1.14-.51-1.14-1.14s.51-1.14,1.14-1.14,1.14.51,1.14,1.14-.51,1.14-1.14,1.14Z"/>
    <circle cx="281.84" cy="286" r="1.28"/>
    <path d="m290.67,275.29c-.75,0-1.37-.61-1.37-1.37s.61-1.37,1.37-1.37,1.37.61,1.37,1.37-.61,1.37-1.37,1.37Z"/>
    <circle cx="302.28" cy="264.49" r="1.44"/>
    <path d="m315.91,259.79c-.81,0-1.47-.66-1.47-1.47s.66-1.47,1.47-1.47,1.47.66,1.47,1.47-.66,1.47-1.47,1.47Z"/>
    <path d="m330.67,257.37c-.83,0-1.5-.67-1.5-1.5s.67-1.5,1.5-1.5,1.5.67,1.5,1.5-.67,1.5-1.5,1.5Z"/>
    <path d="m345.57,258.72c-.82,0-1.48-.66-1.48-1.48s.66-1.48,1.48-1.48,1.48.66,1.48,1.48-.66,1.48-1.48,1.48Z"/>
    <path d="m359.62,263.83c-.8,0-1.45-.65-1.45-1.45s.65-1.45,1.45-1.45,1.45.65,1.45,1.45-.65,1.45-1.45,1.45Z"/>
    <path d="m371.89,272.34c-.77,0-1.39-.62-1.39-1.39s.62-1.39,1.39-1.39,1.39.62,1.39,1.39-.62,1.39-1.39,1.39Z"/>
    <path d="m381.58,283.65c-.72,0-1.31-.59-1.31-1.31s.59-1.31,1.31-1.31,1.31.59,1.31,1.31-.59,1.31-1.31,1.31Z"/>
    <circle cx="388.03" cy="295.84" r="1.19"/>
    <path d="m390.81,311.56c-.57,0-1.03-.46-1.03-1.03s.46-1.03,1.03-1.03,1.03.46,1.03,1.03-.46,1.03-1.03,1.03Z"/>
    <path d="m389.77,326.33c-.48,0-.86-.39-.86-.86s.39-.86.86-.86.86.39.86.86-.39.86-.86.86Z"/>
    <path d="m384.94,340.3c-.37,0-.67-.3-.67-.67s.3-.67.67-.67.67.3.67.67-.3.67-.67.67Z"/>
    <path d="m376.65,352.48c-.22,0-.4-.18-.4-.4s.18-.4.4-.4.4.18.4.4-.18.4-.4.4Z"/>
    <circle cx="365.46" cy="362.02" r=".1"/>
  </g>
  <g>
    <circle cx="300.68" cy="340.23" r=".29"/>
    <circle cx="293.45" cy="327.17" r=".52"/>
    <circle cx="291.32" cy="312.4" r=".67"/>
    <path d="m294.54,298.65c-.45,0-.82-.37-.82-.82s.37-.82.82-.82.82.37.82.82-.37.82-.82.82Z"/>
    <path d="m302.72,286.24c-.49,0-.89-.4-.89-.89s.4-.89.89-.89.89.4.89.89-.4.89-.89.89Z"/>
    <path d="m314.77,277.49c-.52,0-.94-.42-.94-.94s.42-.94.94-.94.94.42.94.94-.42.94-.94.94Z"/>
    <circle cx="329.16" cy="272.6" r=".99"/>
    <path d="m344.02,274.93c-.53,0-.96-.43-.96-.96s.43-.96.96-.96.96.43.96.96-.43.96-.96.96Z"/>
    <path d="m357.42,281.44c-.5,0-.91-.41-.91-.91s.41-.91.91-.91.91.41.91.91-.41.91-.91.91Z"/>
    <path d="m367.65,292.25c-.48,0-.86-.39-.86-.86s.39-.86.86-.86.86.39.86.86-.39.86-.86.86Z"/>
    <path d="m373.38,305.91c-.41,0-.75-.34-.75-.75s.34-.75.75-.75.75.34.75.75-.34.75-.75.75Z"/>
    <circle cx="373.86" cy="320.08" r=".6"/>
    <circle cx="369.04" cy="334.21" r=".41"/>
    <path d="m359.53,345.87c-.09,0-.16-.07-.16-.16s.07-.16.16-.16.16.07.16.16-.07.16-.16.16Z"/>
  </g>
  <g>
    <path d="m310.31,325.11c-.25,0-.45-.2-.45-.45s.2-.45.45-.45.45.2.45.45-.2.45-.45.45Z"/>
    <path d="m308.2,310.77c-.41,0-.74-.33-.74-.74s.33-.74.74-.74.74.33.74.74-.33.74-.74.74Z"/>
    <path d="m314.76,297.69c-.5,0-.91-.41-.91-.91s.41-.91.91-.91.91.41.91.91-.41.91-.91.91Z"/>
    <circle cx="327.65" cy="289.57" r=".98"/>
    <path d="m342.38,291.92c-.54,0-.97-.44-.97-.97s.44-.97.97-.97.97.44.97.97-.44.97-.97.97Z"/>
    <path d="m353.72,301.29c-.48,0-.87-.39-.87-.87s.39-.87.87-.87.87.39.87.87-.39.87-.87.87Z"/>
    <path d="m357.7,315.33c-.37,0-.67-.3-.67-.67s.3-.67.67-.67.67.3.67.67-.3.67-.67.67Z"/>
    <path d="m352.91,328.97c-.18,0-.33-.15-.33-.33s.15-.33.33-.33.33.15.33.33-.15.33-.33.33Z"/>
  </g>
  <g>
    <circle cx="326.79" cy="308.22" r=".46"/>
    <path d="m339.78,309.88c-.24,0-.44-.2-.44-.44s.2-.44.44-.44.44.2.44.44-.2.44-.44.44Z"/>
  </g>
  <g>
    <path d="m198.19,517.53c-.23,0-.42-.19-.42-.42s.19-.42.42-.42.42.19.42.42-.19.42-.42.42Z"/>
    <path d="m185.96,509.24c-.44,0-.8-.36-.8-.8s.36-.8.8-.8.8.36.8.8-.36.8-.8.8Z"/>
    <path d="m174.28,500.2c-.65,0-1.17-.52-1.17-1.17s.52-1.17,1.17-1.17,1.17.52,1.17,1.17-.52,1.17-1.17,1.17Z"/>
    <path d="m163.19,490.43c-.83,0-1.5-.67-1.5-1.5s.67-1.5,1.5-1.5,1.5.67,1.5,1.5-.67,1.5-1.5,1.5Z"/>
    <circle cx="152.75" cy="478.16" r="1.83"/>
    <circle cx="142.98" cy="466.78" r="2.15"/>
    <circle cx="133.93" cy="454.82" r="2.43"/>
    <circle cx="125.63" cy="442.32" r="2.71"/>
    <circle cx="118.11" cy="429.34" r="2.98"/>
    <circle cx="111.41" cy="415.93" r="3.25"/>
    <circle cx="105.55" cy="402.12" r="3.51" transform="translate(-63.05 22.1) rotate(-9.22)"/>
    <circle cx="100.56" cy="387.97" r="3.73"/>
    <circle cx="96.45" cy="373.55" r="3.94"/>
    <circle cx="93.25" cy="358.9" r="4.15"/>
    <circle cx="90.95" cy="344.07" r="4.36"/>
    <circle cx="89.57" cy="329.14" r="4.58"/>
    <circle cx="89.11" cy="314.15" r="4.79"/>
    <circle cx="89.55" cy="299.15" r="4.94"/>
    <circle cx="90.9" cy="284.21" r="5.09"/>
    <circle cx="93.17" cy="269.38" r="5.25"/>
    <circle cx="96.35" cy="254.73" r="5.4"/>
    <circle cx="100.44" cy="240.29" r="5.55"/>
    <circle cx="105.41" cy="226.14" r="5.71" transform="translate(-134.69 293.96) rotate(-80.78)"/>
    <circle cx="111.24" cy="212.32" r="5.86" transform="translate(-120.95 271.81) rotate(-76.72)"/>
    <circle cx="117.92" cy="198.89" r="5.97"/>
    <circle cx="125.42" cy="185.9" r="6.06"/>
    <circle cx="133.7" cy="173.4" r="6.16"/>
    <circle cx="142.73" cy="161.42" r="6.25"/>
    <circle cx="152.48" cy="150.02" r="6.34"/>
    <circle cx="162.9" cy="139.24" r="6.43"/>
    <circle cx="173.97" cy="129.12" r="6.53"/>
    <circle cx="185.64" cy="119.69" r="6.62"/>
    <circle cx="197.86" cy="110.99" r="6.71"/>
    <circle cx="210.59" cy="103.06" r="6.75" transform="translate(-11.2 179.1) rotate(-45)"/>
    <circle cx="223.79" cy="95.93" r="6.8" transform="translate(73.63 287.6) rotate(-75.13)"/>
    <circle cx="237.4" cy="89.63" r="6.85"/>
    <circle cx="251.38" cy="84.19" r="6.89" transform="translate(88.73 293.53) rotate(-70.67)"/>
    <circle cx="265.66" cy="79.62" r="6.93"/>
    <circle cx="280.21" cy="75.94" r="6.94" transform="translate(86.97 292.6) rotate(-63.43)"/>
    <circle cx="294.95" cy="73.17" r="6.96" transform="translate(114.47 317.67) rotate(-67.5)"/>
    <circle cx="309.83" cy="71.32" r="6.97" transform="translate(139.97 340.08) rotate(-70.67)"/>
    <circle cx="324.8" cy="70.38" r="6.99"/>
    <circle cx="339.8" cy="70.35" r="6.99"/>
    <circle cx="354.78" cy="71.23" r="6.98" transform="translate(170.13 382.43) rotate(-70.67)"/>
    <circle cx="369.67" cy="73.02" r="6.96"/>
    <circle cx="384.42" cy="75.73" r="6.95"/>
    <circle cx="398.98" cy="79.34" r="6.93"/>
    <circle cx="413.29" cy="83.85" r="6.91" transform="translate(153.46 416.01) rotate(-63.43)"/>
    <circle cx="427.28" cy="89.24" r="6.86"/>
    <circle cx="440.92" cy="95.49" r="6.81" transform="translate(246.68 502.68) rotate(-76.72)"/>
    <circle cx="454.15" cy="102.56" r="6.77" transform="translate(185.6 482.89) rotate(-67.5)"/>
    <circle cx="466.91" cy="110.44" r="6.72"/>
    <circle cx="479.16" cy="119.08" r="6.64" transform="translate(253.18 558.07) rotate(-76.72)"/>
    <circle cx="490.87" cy="128.46" r="6.55"/>
    <circle cx="501.98" cy="138.54" r="6.46"/>
    <circle cx="512.45" cy="149.28" r="6.36" transform="translate(201.96 583.43) rotate(-70.67)"/>
    <circle cx="522.24" cy="160.64" r="6.27" transform="translate(280.02 650.41) rotate(-80.78)"/>
    <circle cx="531.33" cy="172.58" r="6.18" transform="translate(228.15 641.81) rotate(-75.13)"/>
    <circle cx="539.66" cy="185.05" r="6.09"/>
    <circle cx="547.21" cy="198.01" r="5.99"/>
    <circle cx="553.94" cy="211.42" r="5.89"/>
    <circle cx="559.84" cy="225.21" r="5.74" transform="translate(4.72 461.83) rotate(-45)"/>
    <circle cx="564.86" cy="239.34" r="5.59"/>
    <circle cx="569.01" cy="253.76" r="5.43"/>
    <circle cx="572.25" cy="268.4" r="5.28"/>
    <circle cx="574.58" cy="283.22" r="5.12"/>
    <circle cx="575.99" cy="298.15" r="4.97" transform="translate(80.12 716.2) rotate(-67.5)"/>
    <circle cx="576.49" cy="313.14" r="4.82" transform="translate(66.58 725.92) rotate(-67.5)"/>
    <circle cx="576.09" cy="328.14" r="4.61"/>
    <circle cx="574.77" cy="343.08" r="4.4"/>
    <path d="m572.54,362.1c-2.31,0-4.19-1.87-4.19-4.19s1.87-4.19,4.19-4.19,4.19,1.87,4.19,4.19-1.87,4.19-4.19,4.19Z"/>
    <circle cx="569.39" cy="372.58" r="3.97"/>
    <circle cx="565.35" cy="387.02" r="3.76"/>
    <path d="m560.41,404.73c-1.96,0-3.54-1.59-3.54-3.54s1.59-3.54,3.54-3.54,3.54,1.59,3.54,3.54-1.59,3.54-3.54,3.54Z"/>
    <path d="m554.61,418.3c-1.81,0-3.28-1.47-3.28-3.28s1.47-3.28,3.28-3.28,3.28,1.47,3.28,3.28-1.47,3.28-3.28,3.28Z"/>
    <path d="m547.96,431.48c-1.66,0-3.01-1.35-3.01-3.01s1.35-3.01,3.01-3.01,3.01,1.35,3.01,3.01-1.35,3.01-3.01,3.01Z"/>
    <path d="m540.5,444.22c-1.51,0-2.74-1.23-2.74-2.74s1.23-2.74,2.74-2.74,2.74,1.23,2.74,2.74-1.23,2.74-2.74,2.74Z"/>
    <path d="m532.25,456.47c-1.36,0-2.47-1.1-2.47-2.47s1.1-2.47,2.47-2.47,2.47,1.1,2.47,2.47-1.1,2.47-2.47,2.47Z"/>
    <circle cx="523.24" cy="466.01" r="2.19"/>
    <path d="m513.52,479.29c-1.03,0-1.86-.83-1.86-1.86s.83-1.86,1.86-1.86,1.86.83,1.86,1.86-.83,1.86-1.86,1.86Z"/>
    <circle cx="503.12" cy="488.24" r="1.53"/>
    <path d="m492.08,499.59c-.66,0-1.2-.54-1.2-1.2s.54-1.2,1.2-1.2,1.2.54,1.2,1.2-.54,1.2-1.2,1.2Z"/>
    <circle cx="480.43" cy="507.85" r=".83"/>
    <path d="m468.23,517.02c-.25,0-.45-.2-.45-.45s.2-.45.45-.45.45.2.45.45-.2.45-.45.45Z"/>
    <circle cx="455.53" cy="524.52" r=".03"/>
  </g>
  <text class="cls-1" transform="translate(89.11 486.67)"><tspan class="cls-5" x="0" y="0">D</tspan><tspan class="cls-3" x="104.14" y="0">Y</tspan><tspan class="cls-2" x="193.97" y="0">O</tspan><tspan class="cls-4" x="314.75" y="0">T</tspan><tspan x="404.29" y="0">A</tspan></text>
</svg>